Patient5_TMGait_0pt45_1_left_14_EMG.mot
version=1
nRows=33
nColumns=33
inDegrees=no
endheader
time	1LAddLong	2LGlutMax	3LGlutMed	4LIliopsoas	5LSemiMemb	6LBicFemLong	7LRecFem	8LTensFascLat	9LVastMed	10LVasLat	11LGasMed	12lGasLat	13LTibAnt	14LPeroneusLong	15LSol	16LTibPost	17RAddLong	18RGlutMax	19RGlutMed	20RIliopsoas	21RSemiMemb	22RBicFemLong	23RRecFem	24RTensFascLat	25RVastMed	26RVasLat	27RGasMed	28RGasLat	29RTibAnt	30RPeroneusLong	31RSol	32RTibPost
22.52	0.032959	-0.005341	-0.087738	0.001068	0.060425	-0.13001	0.000305	-0.078888	-0.014343	-0.064087	-0.13718	-0.103	-0.000458	0.02121	-0.11612	-0.11887	-0.001068	0.005493	-0.011139	0.13886	0.12512	-0.015564	-0.011292	0.022736	-0.049286	-0.073242	0.006866	0.00473	-0.011902	-0.065613	0.00946	0.006256
22.521	0.03006	0.006104	0.060883	0.00473	0.09613	-0.027313	0.006409	0.18143	0.043945	-0.033875	0.045471	-0.11902	0.008087	0.011902	-0.15854	-0.1947	0.000305	0.008698	-0.001984	0	0.11429	-0.015411	-0.01236	-0.003357	-0.045471	-0.058594	0.004425	0.017242	-0.013733	-0.065613	-0.001373	-0.005188
22.522	0.025787	0.012054	0.074768	0.009003	0.22644	0.016632	-0.000458	0.27832	0.072632	0.01297	0.039215	-0.011597	-0.004272	-0.02182	-0.086823	-0.11429	0.000916	0.00885	0.005646	0.1059	0.10956	-0.01297	-0.012817	-0.033264	-0.026703	-0.062714	0.006104	0.015106	-0.019836	-0.070801	0.000153	-0.001068
22.523	0.021667	0.018158	-0.018005	0.010834	0.28229	-0.001526	-0.009155	0.024567	0.11597	-0.001678	0.075989	0.002289	-0.00412	-0.027771	0.002747	-0.058746	-0.01297	0.001831	0.044403	-0.16754	0.098267	-0.008392	-0.014496	-0.069122	0.009308	-0.040741	0.009003	-0.002136	-0.016632	-0.060425	0.00473	-0.00061
22.524	0.016174	0.020294	-0.17929	0.000305	0.19043	-0.023346	-0.020599	-0.41092	0.14771	-0.024719	0.09613	0.000305	-0.02243	-0.03891	0.055542	0.007782	-0.011902	-0.000305	0.065155	0.29816	0.12009	-0.007935	-0.014343	-0.089111	0.009155	-0.018616	0.005798	0.014343	-0.018005	-0.070648	0.012207	-0.003662
22.525	0.022736	0.02243	-0.22766	-0.004578	0.19073	-0.039368	-0.006561	-0.47501	0.12878	-0.020142	-0.057983	0.015869	-0.032043	-0.037994	0.11032	0.14481	-0.000153	0.00412	0.048065	0.015717	0.10223	0.001984	-0.011444	-0.088806	0.019073	0.003052	0.006561	0.010681	-0.016785	-0.062714	0.010986	-0.001221
22.526	0.03067	0.01297	-0.18662	-0.028076	0.13397	-0.023346	-0.000305	-0.35248	0.07843	-0.023193	-0.13153	0.001984	-0.020447	-0.02243	0.084839	0.095825	0.010529	-0.000763	0.085449	0.21133	0.11688	-0.005493	-0.013733	-0.10971	0.023041	0.029907	0.008392	0.007935	-0.017242	-0.061951	0.015411	0.00061
22.527	0.031433	-0.00473	-0.092621	-0.011139	-0.011902	-0.006561	-0.00351	-0.11047	0.019531	-0.014801	-0.17838	-0.02243	-0.001221	-0.015564	0.080566	-0.066376	0.014191	0.002441	0.078278	0.41428	0.088806	0.000305	0.007629	-0.11688	0.007782	0.076447	0.006409	-0.013275	-0.015717	-0.059357	0.012665	-0.012665
22.528	0.03952	-0.013123	0.13428	-0.016785	-0.022736	0.013885	0.011597	0.34943	-0.014496	-0.007019	-0.1207	-0.004272	0.001984	-0.004272	0.01297	0.016632	0.019226	0.002441	0.035553	-0.12665	0.11902	0.000458	-0.006409	-0.088806	-0.008698	0.052032	0.008087	0.005188	-0.015411	-0.04715	0.003052	-0.00946
22.529	0.038452	-0.025482	0.41107	-0.003052	0.043488	-0.002747	0.012207	0.87723	-0.028381	-0.008087	-0.020294	0.039368	-0.001678	0.021515	0.018768	0.054626	0.016022	0.000458	-0.031433	-0.23102	0.097351	0.002441	-0.010681	-0.057983	0.004883	0.022888	0.011902	0.007477	-0.014801	-0.042572	-0.00946	-0.010376
22.53	0.045929	-0.034943	0.4892	-0.00946	0.020447	0.000763	0.005035	0.78751	-0.049438	0.008087	-0.085144	0.006866	-0.000305	0.028992	0.011902	0.007782	0.016022	0.003357	-0.011292	0.17853	0.071716	0.004578	-0.012207	-0.030823	0.054626	-0.01358	0.006866	0.008545	-0.02182	-0.041809	-0.007629	-0.021362
22.531	0.048065	-0.017548	0.24887	0.002594	-0.033264	0.010986	0.007477	0.3186	-0.079041	0.001373	-0.035248	-0.032959	-0.001678	0.054169	-0.048218	-0.007172	0.013885	0.001068	-0.031586	-0.014496	0.074615	0.000458	-0.014191	0.006714	0.053558	-0.018768	0.006409	0.00824	-0.015717	-0.03479	0.007019	-0.027161
22.532	0.050049	-0.024414	0.022125	0.016785	0.024872	0.054169	0.001526	-0.072479	-0.065613	0.006714	-0.079193	-0.059509	0.005035	0.034943	-0.047302	0.077667	0.010071	-0.002747	-0.015717	-0.65155	0.082703	0.006866	-0.018616	-0.035858	0.031891	-0.024414	0.011292	0.002747	-0.015411	-0.031891	0.003815	-0.02655
22.533	0.042267	-0.021362	-0.097809	0.020905	-0.096436	0.051727	0.002747	-0.18356	-0.077362	0.010529	0.12512	0.02655	-0.015869	0.036774	-0.053711	-0.020294	0.017853	0.000916	0.03479	-0.12207	0.055695	0.012054	-0.018005	-0.063782	0.010071	0.006714	0.006561	0.006409	-0.015411	-0.027924	0.00351	-0.014191
22.534	0.041656	-0.019226	-0.1207	0.010071	-0.11566	0.073853	0.004425	-0.23911	-0.070801	0.004425	0.121	0.089417	-0.011902	0.032654	-0.0737	0.025024	0.006866	0.00061	0.029602	0.78003	0.069275	0.01709	-0.0177	-0.071716	0.005646	0.033722	0.001678	0.011139	-0.016632	-0.03891	0.002747	-0.014343
22.535	0.064392	-0.008392	-0.1416	0.002289	-0.065613	0.097504	0.011139	-0.32364	-0.066223	-0.001678	0.12558	0.02594	-0.011749	-0.007019	-0.066071	0.070801	0.007019	0.000153	0.034485	-0.12421	0.054016	0.012054	-0.018921	-0.13809	0.012207	0.025635	0.004578	0.013123	-0.02243	-0.062256	-0.004272	-0.0177
22.536	0.040588	-0.010834	-0.093994	-0.020142	-0.18494	0.069122	0.002594	-0.23193	-0.081635	-0.014343	0.037537	-0.039368	-0.008392	-0.025482	-0.022736	-0.082245	0.003662	0.001831	0.019684	-0.4277	0.083618	0.020905	-0.028076	-0.20081	0.002289	0.030518	0.007629	0.014038	-0.014801	-0.048523	-0.004425	-0.011902
22.537	0.041809	-0.005493	-0.080872	-0.010223	-0.29541	0.045776	-0.011902	-0.012665	-0.056	-0.001526	-0.091248	-0.050201	0.001831	-0.062714	0.005341	-0.16586	-0.039063	0.003815	0.007477	0.10284	0.083313	0.018005	-0.030365	-0.23941	-0.020752	-0.001526	0.006714	0.006104	-0.014191	-0.030975	-0.009155	-0.009613
22.538	0.029755	-0.017242	-0.1506	-0.012207	-0.23712	0.011749	-0.023041	-0.017548	-0.059967	0.032043	-0.10803	-0.040741	0.012665	-0.086975	-0.056	-0.040894	-0.050659	0.001526	0.006866	0.094147	0.079803	0.009613	-0.02655	-0.28549	-0.053864	-0.003357	0.007477	-0.010223	-0.016785	-0.028076	0.001678	-0.009613
22.539	0.032349	-0.018311	-0.16357	-0.011749	-0.016632	-0.047302	-0.023499	-0.16373	-0.043335	0.01709	0.14801	-0.006714	0.007782	-0.055237	-0.027771	0.005188	-0.053253	-0.005341	-0.016937	-0.67749	0.063629	0.004272	-0.03067	-0.32181	-0.070038	0.009308	0.006714	-0.032959	-0.003815	-0.041504	0.000153	0.002289
22.54	0.036774	-0.020905	-0.083923	-0.011597	0.1207	-0.064087	-0.017548	-0.00946	-0.036316	0.012665	0.16876	0.01297	-0.005646	0.050659	0.017853	0.021362	-0.03067	0.000305	-0.073547	0.097198	0.070496	0.003662	-0.0354	-0.27512	-0.072937	0.000153	0.008545	-0.014801	-0.027618	-0.046844	-0.002136	-0.006866
22.541	0.013123	-0.017853	-0.056152	-0.012207	0.23102	-0.075073	-0.014191	0.018463	-0.031891	0.021362	0.079803	0.032959	-0.020294	0.1828	0.078125	-0.027313	-0.021057	-0.000305	-0.09552	0.25101	0.057068	-0.003052	-0.024872	-0.18265	-0.049438	0.006104	0.003815	0.006409	-0.044403	-0.046539	-0.001678	-0.001373
22.542	-0.021973	0.003815	-0.033875	-0.001373	0.10513	-0.06073	-0.006561	-0.051117	-0.011749	0.033722	0.063171	0.019073	-0.005341	0.21164	0.11627	0.089722	-0.025482	0.002441	-0.039215	-0.26947	0.068512	-0.004578	-0.021057	-0.10819	-0.023651	0.023804	0.004425	0.013275	-0.041656	-0.054016	-0.000305	-0.000305
22.543	0.002136	0.013123	-0.058441	0.002441	0.024414	-0.040436	-0.002747	-0.17014	0.014343	0.043182	0.032501	0.031433	-0.025787	0.14038	0.075073	-0.076599	-0.012817	0.001984	-0.004425	-0.31845	0.078735	-0.007324	-0.02121	-0.027618	-0.010376	0.019989	0.003815	-0.002441	-0.036469	-0.052643	0.005035	0.006256
22.544	0.014496	0.023651	-0.009003	0.006104	0.14389	-0.03891	0.001068	-0.1831	0.018463	0.031738	-0.013885	0.040283	-0.009918	0.083008	-0.016174	-0.065308	0.004883	0.002136	-0.003204	0.11688	0.072327	-0.005341	-0.024567	0.12146	0.003052	0.023956	0.001526	-0.000305	-0.027618	-0.063019	0.016022	0.021362
22.545	0.012512	0.034332	0.14206	-0.00061	0.21042	-0.033875	0.001678	-0.17593	0.018463	0.034027	0.016479	-0.028381	0.022583	0.023804	-0.050659	0.035248	-0.000916	-0.004578	-0.080719	0.097351	0.097351	0.003967	-0.024872	0.15503	-0.006561	0.023346	0.003052	0.007629	-0.024261	-0.063477	0.000305	0.036011
22.546	0.006104	0.030518	0.044861	0.001831	0.1738	0.016327	-0.003967	-0.1181	0.010986	0.038147	-0.024872	0.003967	0.022278	-0.021362	-0.006409	0.069275	-0.017242	-0.001373	-0.062561	-0.072632	0.10834	0.001526	-0.02243	0.18799	-0.026703	0.018768	0.001831	0.029755	0.000305	-0.057068	0.008392	0.028992
22.547	-0.012054	0.02655	-0.00061	0.005341	0.15671	0.064545	-0.007172	0.13092	0.004272	0.032654	-0.055084	0.098724	0.024414	-0.080109	0.01297	0.070038	-0.016632	0.002594	-0.035248	0.055084	0.13565	0.000763	-0.019989	0.19165	-0.023804	0.010986	-0.001068	0.019989	0.028839	-0.040131	-0.000763	0.017548
22.548	-0.02121	0.039825	0.002441	0.047302	0.000458	0.14374	-0.01236	-0.103	-0.00351	0.035553	-0.070648	0.14664	-0.004883	-0.12054	-0.017242	0.18967	-0.010376	0.005646	-0.036926	-0.23071	0.12161	0.001068	-0.020447	0.17425	-0.032043	0.015106	0.002136	0.003204	-0.007477	-0.029144	-0.003815	0.008392
22.549	-0.034332	0.028076	-0.13779	0.038147	-0.030212	0.18631	-0.013123	-0.26428	0.006256	0.030518	-0.041199	0.11871	0.014496	-0.078888	-0.056763	0.083923	-0.008545	0.002594	-0.029449	-0.001831	0.097809	-0.001373	-0.023346	0.14801	-0.039825	0.018311	0.000916	-0.015564	-0.012207	-0.038452	-0.007782	0.006409
22.55	-0.04776	0.024109	-0.24002	0.013428	0.055389	0.15823	-0.012054	-0.29968	-0.000458	0.04425	0.079956	-0.001373	-0.014801	-0.057068	-0.013885	0.011597	0.003967	0.006104	-0.06958	-0.25726	0.12405	0.001526	-0.019684	0.13947	-0.024109	0.012817	-0.001373	-0.014343	-0.001984	-0.047302	-0.040741	0.007019
22.551	-0.046844	0.007935	-0.22079	-0.007019	0.017853	0.12894	0.005798	-0.41077	-0.031586	0.076447	0.06424	-0.032654	-0.039978	-0.061951	0.012512	-0.06134	-0.007629	0.006714	-0.012512	0.4773	0.12787	-0.018005	-0.018158	0.13016	-0.007019	0.007629	-0.014648	-0.001678	0.003662	-0.046844	-0.054779	0.005035
22.552	-0.004425	-0.003357	-0.13596	-0.002136	-0.17548	0.09079	0.020142	-0.35889	-0.03952	0.055695	-0.002747	-0.042877	0.000305	-0.043182	0.00824	-0.103	-0.007477	0.004425	0.037842	0.092468	0.12695	-0.019531	-0.016022	0.099487	0.001221	0.00412	-0.007324	-0.002136	0.008392	-0.046997	-0.036774	-0.004883
